<mxfile host="app.diagrams.net" modified="2022-10-19T01:23:23.038Z" agent="5.0 (Windows NT 10.0; Win64; x64) AppleWebKit/537.36 (KHTML, like Gecko) Chrome/106.0.0.0 Safari/537.36" etag="xt9btrjAjdnDDjNm7-1b" version="20.4.0" type="github">
  <diagram id="BGLzXk9twkR0PcoR008e" name="第 1 页">
    <mxGraphModel dx="1268" dy="50" grid="0" gridSize="10" guides="1" tooltips="1" connect="1" arrows="1" fold="1" page="0" pageScale="1" pageWidth="827" pageHeight="1169" math="0" shadow="0">
      <root>
        <mxCell id="0" />
        <mxCell id="1" parent="0" />
        <mxCell id="dXBn1VT0IYcO648EgitK-8" value="" style="rounded=0;whiteSpace=wrap;html=1;fillColor=#fff2cc;strokeColor=#d6b656;" parent="1" vertex="1">
          <mxGeometry x="238" y="884" width="120" height="60" as="geometry" />
        </mxCell>
        <mxCell id="dXBn1VT0IYcO648EgitK-9" value="" style="rounded=0;whiteSpace=wrap;html=1;fillColor=#fff2cc;strokeColor=#d6b656;" parent="1" vertex="1">
          <mxGeometry x="248" y="894" width="120" height="60" as="geometry" />
        </mxCell>
        <mxCell id="dXBn1VT0IYcO648EgitK-10" value="" style="rounded=0;whiteSpace=wrap;html=1;fillColor=#fff2cc;strokeColor=#d6b656;" parent="1" vertex="1">
          <mxGeometry x="258" y="904" width="120" height="60" as="geometry" />
        </mxCell>
        <mxCell id="dXBn1VT0IYcO648EgitK-11" value="" style="rounded=0;whiteSpace=wrap;html=1;fillColor=#fff2cc;strokeColor=#d6b656;" parent="1" vertex="1">
          <mxGeometry x="268" y="914" width="120" height="60" as="geometry" />
        </mxCell>
        <mxCell id="dXBn1VT0IYcO648EgitK-12" value="" style="rounded=0;whiteSpace=wrap;html=1;fillColor=#fff2cc;strokeColor=#d6b656;" parent="1" vertex="1">
          <mxGeometry x="278" y="924" width="120" height="60" as="geometry" />
        </mxCell>
        <mxCell id="dXBn1VT0IYcO648EgitK-13" value="" style="rounded=0;whiteSpace=wrap;html=1;fillColor=#fff2cc;strokeColor=#d6b656;" parent="1" vertex="1">
          <mxGeometry x="288" y="934" width="120" height="60" as="geometry" />
        </mxCell>
        <mxCell id="dXBn1VT0IYcO648EgitK-14" value="" style="rounded=0;whiteSpace=wrap;html=1;fillColor=#fff2cc;strokeColor=#d6b656;" parent="1" vertex="1">
          <mxGeometry x="298" y="944" width="120" height="60" as="geometry" />
        </mxCell>
        <mxCell id="dXBn1VT0IYcO648EgitK-15" value="" style="rounded=0;whiteSpace=wrap;html=1;fillColor=#fff2cc;strokeColor=#d6b656;" parent="1" vertex="1">
          <mxGeometry x="308" y="954" width="120" height="60" as="geometry" />
        </mxCell>
        <mxCell id="dXBn1VT0IYcO648EgitK-16" value="" style="rounded=0;whiteSpace=wrap;html=1;fillColor=#fff2cc;strokeColor=#d6b656;" parent="1" vertex="1">
          <mxGeometry x="318" y="964" width="120" height="60" as="geometry" />
        </mxCell>
        <mxCell id="dXBn1VT0IYcO648EgitK-17" value="" style="rounded=0;whiteSpace=wrap;html=1;fillColor=#fff2cc;strokeColor=#d6b656;" parent="1" vertex="1">
          <mxGeometry x="328" y="974" width="120" height="60" as="geometry" />
        </mxCell>
        <mxCell id="dXBn1VT0IYcO648EgitK-18" value="" style="rounded=0;whiteSpace=wrap;html=1;fillColor=#fff2cc;strokeColor=#d6b656;" parent="1" vertex="1">
          <mxGeometry x="338" y="984" width="120" height="60" as="geometry" />
        </mxCell>
        <mxCell id="dXBn1VT0IYcO648EgitK-19" value="" style="rounded=0;whiteSpace=wrap;html=1;fillColor=#fff2cc;strokeColor=#d6b656;" parent="1" vertex="1">
          <mxGeometry x="348" y="994" width="120" height="60" as="geometry" />
        </mxCell>
        <mxCell id="dXBn1VT0IYcO648EgitK-20" value="" style="rounded=0;whiteSpace=wrap;html=1;fillColor=#fff2cc;strokeColor=#d6b656;" parent="1" vertex="1">
          <mxGeometry x="358" y="1004" width="120" height="60" as="geometry" />
        </mxCell>
        <mxCell id="dXBn1VT0IYcO648EgitK-21" value="" style="rounded=0;whiteSpace=wrap;html=1;fillColor=#fff2cc;strokeColor=#d6b656;" parent="1" vertex="1">
          <mxGeometry x="368" y="1014" width="120" height="60" as="geometry" />
        </mxCell>
        <mxCell id="dXBn1VT0IYcO648EgitK-22" value="" style="rounded=0;whiteSpace=wrap;html=1;fillColor=#fff2cc;strokeColor=#d6b656;" parent="1" vertex="1">
          <mxGeometry x="378" y="1024" width="120" height="60" as="geometry" />
        </mxCell>
        <mxCell id="dXBn1VT0IYcO648EgitK-6" value="" style="shape=cube;whiteSpace=wrap;html=1;boundedLbl=1;backgroundOutline=1;darkOpacity=0.05;darkOpacity2=0.1;fillColor=#e6d0de;gradientColor=#d5739d;strokeColor=#996185;" parent="1" vertex="1">
          <mxGeometry x="154" y="944" width="150" height="80" as="geometry" />
        </mxCell>
        <mxCell id="dXBn1VT0IYcO648EgitK-5" value="" style="shape=cube;whiteSpace=wrap;html=1;boundedLbl=1;backgroundOutline=1;darkOpacity=0.05;darkOpacity2=0.1;fillColor=#ffcccc;strokeColor=#36393d;" parent="1" vertex="1">
          <mxGeometry x="74" y="894" width="90" height="160" as="geometry" />
        </mxCell>
        <mxCell id="dXBn1VT0IYcO648EgitK-4" value="" style="shape=cube;whiteSpace=wrap;html=1;boundedLbl=1;backgroundOutline=1;darkOpacity=0.05;darkOpacity2=0.1;fillColor=#fff2cc;strokeColor=#d6b656;" parent="1" vertex="1">
          <mxGeometry x="14" y="844" width="70" height="240" as="geometry" />
        </mxCell>
        <mxCell id="dXBn1VT0IYcO648EgitK-3" value="" style="shape=cube;whiteSpace=wrap;html=1;boundedLbl=1;backgroundOutline=1;darkOpacity=0.05;darkOpacity2=0.1;fillColor=#d5e8d4;strokeColor=#82b366;" parent="1" vertex="1">
          <mxGeometry x="-6" y="784" width="30" height="350" as="geometry" />
        </mxCell>
        <mxCell id="dXBn1VT0IYcO648EgitK-39" value="" style="rounded=0;whiteSpace=wrap;html=1;fillColor=#b1ddf0;strokeColor=#10739e;" parent="1" vertex="1">
          <mxGeometry x="571" y="819" width="370" height="350" as="geometry" />
        </mxCell>
        <mxCell id="dXBn1VT0IYcO648EgitK-54" value="" style="group" parent="1" vertex="1" connectable="0">
          <mxGeometry x="621" y="834" width="106" height="110" as="geometry" />
        </mxCell>
        <mxCell id="dXBn1VT0IYcO648EgitK-56" value="" style="edgeStyle=none;rounded=0;orthogonalLoop=1;jettySize=auto;html=1;" parent="dXBn1VT0IYcO648EgitK-54" source="dXBn1VT0IYcO648EgitK-50" target="dXBn1VT0IYcO648EgitK-53" edge="1">
          <mxGeometry relative="1" as="geometry" />
        </mxCell>
        <mxCell id="dXBn1VT0IYcO648EgitK-50" value="" style="shape=cube;whiteSpace=wrap;html=1;boundedLbl=1;backgroundOutline=1;darkOpacity=0.05;darkOpacity2=0.1;fillColor=#fad9d5;strokeColor=#ae4132;" parent="dXBn1VT0IYcO648EgitK-54" vertex="1">
          <mxGeometry x="54.70967741935484" y="50.285714285714285" width="51.29032258064517" height="25.142857142857142" as="geometry" />
        </mxCell>
        <mxCell id="dXBn1VT0IYcO648EgitK-51" value="" style="shape=cube;whiteSpace=wrap;html=1;boundedLbl=1;backgroundOutline=1;darkOpacity=0.05;darkOpacity2=0.1;fillColor=#b1ddf0;strokeColor=#10739e;" parent="dXBn1VT0IYcO648EgitK-54" vertex="1">
          <mxGeometry x="27.35483870967742" y="34.57142857142858" width="30.7741935483871" height="50.285714285714285" as="geometry" />
        </mxCell>
        <mxCell id="dXBn1VT0IYcO648EgitK-52" value="" style="shape=cube;whiteSpace=wrap;html=1;boundedLbl=1;backgroundOutline=1;darkOpacity=0.05;darkOpacity2=0.1;fillColor=#b0e3e6;strokeColor=#0e8088;" parent="dXBn1VT0IYcO648EgitK-54" vertex="1">
          <mxGeometry x="6.838709677419355" y="18.85714285714286" width="23.935483870967747" height="75.42857142857144" as="geometry" />
        </mxCell>
        <mxCell id="dXBn1VT0IYcO648EgitK-53" value="" style="shape=cube;whiteSpace=wrap;html=1;boundedLbl=1;backgroundOutline=1;darkOpacity=0.05;darkOpacity2=0.1;fillColor=none;" parent="dXBn1VT0IYcO648EgitK-54" vertex="1">
          <mxGeometry width="10.258064516129034" height="110" as="geometry" />
        </mxCell>
        <mxCell id="dXBn1VT0IYcO648EgitK-63" value="" style="group" parent="1" vertex="1" connectable="0">
          <mxGeometry x="721" y="1014" width="90" height="80" as="geometry" />
        </mxCell>
        <mxCell id="dXBn1VT0IYcO648EgitK-58" value="" style="shape=cube;whiteSpace=wrap;html=1;boundedLbl=1;backgroundOutline=1;darkOpacity=0.05;darkOpacity2=0.1;fillColor=#a20025;fontColor=#ffffff;strokeColor=#6F0000;" parent="dXBn1VT0IYcO648EgitK-63" vertex="1">
          <mxGeometry x="31.304347826086957" y="25" width="58.69565217391305" height="40" as="geometry" />
        </mxCell>
        <mxCell id="dXBn1VT0IYcO648EgitK-59" value="" style="shape=cube;whiteSpace=wrap;html=1;boundedLbl=1;backgroundOutline=1;darkOpacity=0.05;darkOpacity2=0.1;fillColor=#d80073;fontColor=#ffffff;strokeColor=#A50040;" parent="dXBn1VT0IYcO648EgitK-63" vertex="1">
          <mxGeometry width="35.217391304347835" height="80" as="geometry" />
        </mxCell>
        <mxCell id="dXBn1VT0IYcO648EgitK-66" style="edgeStyle=none;rounded=0;orthogonalLoop=1;jettySize=auto;html=1;exitX=0;exitY=0;exitDx=35.645161290322584;exitDy=25.142857142857142;exitPerimeter=0;entryX=0;entryY=0;entryDx=25.217391304347835;entryDy=10;entryPerimeter=0;" parent="1" source="dXBn1VT0IYcO648EgitK-50" target="dXBn1VT0IYcO648EgitK-59" edge="1">
          <mxGeometry relative="1" as="geometry" />
        </mxCell>
        <mxCell id="dXBn1VT0IYcO648EgitK-67" style="edgeStyle=none;rounded=0;orthogonalLoop=1;jettySize=auto;html=1;exitX=1;exitY=0;exitDx=0;exitDy=0;" parent="1" source="dXBn1VT0IYcO648EgitK-15" edge="1">
          <mxGeometry relative="1" as="geometry">
            <mxPoint x="618" y="890" as="targetPoint" />
          </mxGeometry>
        </mxCell>
        <mxCell id="dXBn1VT0IYcO648EgitK-73" value="" style="group" parent="1" vertex="1" connectable="0">
          <mxGeometry x="840.9958823529412" y="933.9985714285713" width="80.29411764705884" height="109.71428571428578" as="geometry" />
        </mxCell>
        <mxCell id="dXBn1VT0IYcO648EgitK-69" value="" style="shape=cube;whiteSpace=wrap;html=1;boundedLbl=1;backgroundOutline=1;darkOpacity=0.05;darkOpacity2=0.1;fillColor=#1ba1e2;fontColor=#ffffff;strokeColor=#006EAF;" parent="dXBn1VT0IYcO648EgitK-73" vertex="1">
          <mxGeometry x="32.117647058823536" y="22.85714285714289" width="48.1764705882353" height="73.14285714285715" as="geometry" />
        </mxCell>
        <mxCell id="dXBn1VT0IYcO648EgitK-70" value="" style="shape=cube;whiteSpace=wrap;html=1;boundedLbl=1;backgroundOutline=1;darkOpacity=0.05;darkOpacity2=0.1;fillColor=#008a00;fontColor=#ffffff;strokeColor=#005700;" parent="dXBn1VT0IYcO648EgitK-73" vertex="1">
          <mxGeometry width="37.47058823529412" height="109.71428571428572" as="geometry" />
        </mxCell>
        <mxCell id="dXBn1VT0IYcO648EgitK-74" style="edgeStyle=none;rounded=0;orthogonalLoop=1;jettySize=auto;html=1;exitX=0;exitY=0;exitDx=41.29032258064517;exitDy=10;exitPerimeter=0;entryX=0.034;entryY=0.52;entryDx=0;entryDy=0;entryPerimeter=0;" parent="1" source="dXBn1VT0IYcO648EgitK-50" target="dXBn1VT0IYcO648EgitK-70" edge="1">
          <mxGeometry relative="1" as="geometry" />
        </mxCell>
        <mxCell id="dXBn1VT0IYcO648EgitK-75" style="edgeStyle=none;rounded=0;orthogonalLoop=1;jettySize=auto;html=1;exitX=0;exitY=0;exitDx=48.695652173913054;exitDy=10;exitPerimeter=0;entryX=0;entryY=0.547;entryDx=0;entryDy=0;entryPerimeter=0;" parent="1" source="dXBn1VT0IYcO648EgitK-58" target="dXBn1VT0IYcO648EgitK-70" edge="1">
          <mxGeometry relative="1" as="geometry" />
        </mxCell>
        <mxCell id="dXBn1VT0IYcO648EgitK-76" style="edgeStyle=none;rounded=0;orthogonalLoop=1;jettySize=auto;html=1;exitX=1;exitY=0.5;exitDx=0;exitDy=0;" parent="1" source="dXBn1VT0IYcO648EgitK-22" target="dXBn1VT0IYcO648EgitK-59" edge="1">
          <mxGeometry relative="1" as="geometry" />
        </mxCell>
        <mxCell id="AI0_cdf8u8JtjX6jtt7x-1" value="" style="ellipse;whiteSpace=wrap;html=1;" vertex="1" parent="1">
          <mxGeometry x="131" y="1300" width="343" height="254" as="geometry" />
        </mxCell>
        <mxCell id="AI0_cdf8u8JtjX6jtt7x-2" value="" style="ellipse;whiteSpace=wrap;html=1;" vertex="1" parent="1">
          <mxGeometry x="172.55106888361044" y="1322.853470437018" width="263.9714964370546" height="206.33419023136247" as="geometry" />
        </mxCell>
        <mxCell id="AI0_cdf8u8JtjX6jtt7x-3" value="" style="ellipse;whiteSpace=wrap;html=1;" vertex="1" parent="1">
          <mxGeometry x="198.62232779097388" y="1351.2570694087403" width="205.31116389548694" height="149.52699228791772" as="geometry" />
        </mxCell>
        <mxCell id="AI0_cdf8u8JtjX6jtt7x-6" value="" style="ellipse;whiteSpace=wrap;html=1;" vertex="1" parent="1">
          <mxGeometry x="227.85000000000002" y="1378" width="153.38" height="104.74" as="geometry" />
        </mxCell>
        <mxCell id="AI0_cdf8u8JtjX6jtt7x-7" value="" style="endArrow=classic;html=1;rounded=0;entryX=0.229;entryY=0.931;entryDx=0;entryDy=0;entryPerimeter=0;" edge="1" parent="1" target="AI0_cdf8u8JtjX6jtt7x-2">
          <mxGeometry width="50" height="50" relative="1" as="geometry">
            <mxPoint x="217" y="1538" as="sourcePoint" />
            <mxPoint x="244" y="1503" as="targetPoint" />
          </mxGeometry>
        </mxCell>
        <mxCell id="AI0_cdf8u8JtjX6jtt7x-9" value="" style="endArrow=classic;html=1;rounded=0;" edge="1" parent="1">
          <mxGeometry width="50" height="50" relative="1" as="geometry">
            <mxPoint x="234" y="1514.05" as="sourcePoint" />
            <mxPoint x="245" y="1489" as="targetPoint" />
          </mxGeometry>
        </mxCell>
        <mxCell id="AI0_cdf8u8JtjX6jtt7x-10" value="" style="endArrow=classic;html=1;rounded=0;" edge="1" parent="1">
          <mxGeometry width="50" height="50" relative="1" as="geometry">
            <mxPoint x="246" y="1489.05" as="sourcePoint" />
            <mxPoint x="257" y="1471" as="targetPoint" />
          </mxGeometry>
        </mxCell>
        <mxCell id="AI0_cdf8u8JtjX6jtt7x-12" value="" style="ellipse;whiteSpace=wrap;html=1;" vertex="1" parent="1">
          <mxGeometry x="260" y="1398.37" width="90.15" height="64" as="geometry" />
        </mxCell>
        <mxCell id="AI0_cdf8u8JtjX6jtt7x-13" value="" style="endArrow=classic;html=1;rounded=0;" edge="1" parent="1">
          <mxGeometry width="50" height="50" relative="1" as="geometry">
            <mxPoint x="258.5" y="1472.05" as="sourcePoint" />
            <mxPoint x="272" y="1452" as="targetPoint" />
          </mxGeometry>
        </mxCell>
        <mxCell id="AI0_cdf8u8JtjX6jtt7x-46" value="" style="group;rotation=90;" vertex="1" connectable="0" parent="1">
          <mxGeometry x="620.9973839873271" y="1235.9989303452483" width="204.94523202534583" height="378.6621393095036" as="geometry" />
        </mxCell>
        <mxCell id="AI0_cdf8u8JtjX6jtt7x-15" value="" style="ellipse;whiteSpace=wrap;html=1;rotation=0;" vertex="1" parent="AI0_cdf8u8JtjX6jtt7x-46">
          <mxGeometry x="-87" y="87" width="378.66213930950346" height="204.94523202534575" as="geometry" />
        </mxCell>
        <mxCell id="AI0_cdf8u8JtjX6jtt7x-16" value="" style="ellipse;whiteSpace=wrap;html=1;rotation=0;" vertex="1" parent="AI0_cdf8u8JtjX6jtt7x-46">
          <mxGeometry x="-41" y="106" width="291.4169433165775" height="166.48507280208034" as="geometry" />
        </mxCell>
        <mxCell id="AI0_cdf8u8JtjX6jtt7x-17" value="" style="ellipse;whiteSpace=wrap;html=1;rotation=0;" vertex="1" parent="AI0_cdf8u8JtjX6jtt7x-46">
          <mxGeometry x="-13" y="128" width="226.65762257956032" height="120.64899263188731" as="geometry" />
        </mxCell>
        <mxCell id="AI0_cdf8u8JtjX6jtt7x-18" value="" style="ellipse;whiteSpace=wrap;html=1;rotation=0;" vertex="1" parent="AI0_cdf8u8JtjX6jtt7x-46">
          <mxGeometry x="20" y="150" width="169.32711057519427" height="84.51166772572718" as="geometry" />
        </mxCell>
        <mxCell id="AI0_cdf8u8JtjX6jtt7x-19" value="" style="endArrow=classic;html=1;rounded=0;entryX=0;entryY=1;entryDx=0;entryDy=0;" edge="1" parent="AI0_cdf8u8JtjX6jtt7x-46" target="AI0_cdf8u8JtjX6jtt7x-16">
          <mxGeometry width="50" height="50" relative="1" as="geometry">
            <mxPoint x="-8" y="272" as="sourcePoint" />
            <mxPoint x="30" y="244" as="targetPoint" />
          </mxGeometry>
        </mxCell>
        <mxCell id="AI0_cdf8u8JtjX6jtt7x-22" value="" style="ellipse;whiteSpace=wrap;html=1;rotation=0;" vertex="1" parent="AI0_cdf8u8JtjX6jtt7x-46">
          <mxGeometry x="56" y="166" width="99.52300833455315" height="51.63974350244931" as="geometry" />
        </mxCell>
        <mxCell id="AI0_cdf8u8JtjX6jtt7x-37" value="" style="endArrow=classic;html=1;rounded=0;entryX=0;entryY=1;entryDx=0;entryDy=0;" edge="1" parent="AI0_cdf8u8JtjX6jtt7x-46">
          <mxGeometry width="50" height="50" relative="1" as="geometry">
            <mxPoint x="2" y="248" as="sourcePoint" />
            <mxPoint x="11" y="224" as="targetPoint" />
          </mxGeometry>
        </mxCell>
        <mxCell id="AI0_cdf8u8JtjX6jtt7x-38" value="" style="endArrow=classic;html=1;rounded=0;" edge="1" parent="AI0_cdf8u8JtjX6jtt7x-46">
          <mxGeometry width="50" height="50" relative="1" as="geometry">
            <mxPoint x="11" y="229" as="sourcePoint" />
            <mxPoint x="11" y="200" as="targetPoint" />
          </mxGeometry>
        </mxCell>
        <mxCell id="AI0_cdf8u8JtjX6jtt7x-39" value="" style="endArrow=classic;html=1;rounded=0;" edge="1" parent="AI0_cdf8u8JtjX6jtt7x-46">
          <mxGeometry width="50" height="50" relative="1" as="geometry">
            <mxPoint x="11" y="203" as="sourcePoint" />
            <mxPoint x="5" y="179" as="targetPoint" />
          </mxGeometry>
        </mxCell>
        <mxCell id="AI0_cdf8u8JtjX6jtt7x-40" value="" style="endArrow=classic;html=1;rounded=0;" edge="1" parent="AI0_cdf8u8JtjX6jtt7x-46">
          <mxGeometry width="50" height="50" relative="1" as="geometry">
            <mxPoint x="6" y="186" as="sourcePoint" />
            <mxPoint x="19" y="164" as="targetPoint" />
          </mxGeometry>
        </mxCell>
        <mxCell id="AI0_cdf8u8JtjX6jtt7x-43" value="" style="endArrow=classic;html=1;rounded=0;entryX=0;entryY=0;entryDx=0;entryDy=0;" edge="1" parent="AI0_cdf8u8JtjX6jtt7x-46" target="AI0_cdf8u8JtjX6jtt7x-18">
          <mxGeometry width="50" height="50" relative="1" as="geometry">
            <mxPoint x="18" y="166" as="sourcePoint" />
            <mxPoint x="18" y="137" as="targetPoint" />
          </mxGeometry>
        </mxCell>
        <mxCell id="AI0_cdf8u8JtjX6jtt7x-44" value="" style="endArrow=classic;html=1;rounded=0;" edge="1" parent="AI0_cdf8u8JtjX6jtt7x-46">
          <mxGeometry width="50" height="50" relative="1" as="geometry">
            <mxPoint x="45" y="163" as="sourcePoint" />
            <mxPoint x="45" y="186" as="targetPoint" />
          </mxGeometry>
        </mxCell>
      </root>
    </mxGraphModel>
  </diagram>
</mxfile>
